<svg width="32" height="32" viewBox="0 0 13 15" xmlns="http://www.w3.org/2000/svg">
<path d="M12.7698 0.122166C12.6456 0.0269187 12.4888 -0.015236 12.3336 0.00493659C12.1784 0.0251092 12.0376 0.105964 11.9419 0.229788L6.4957 7.30806L1.0507 0.229788C0.953522 0.109997 0.813387 0.0329165 0.660183 0.0149899C0.506979 -0.00293672 0.352834 0.0397094 0.23063 0.133831C0.108426 0.227953 0.0278359 0.3661 0.00605131 0.518803C-0.0157333 0.671506 0.023012 0.826677 0.114022 0.951216L5.74944 8.27785H2.9477C2.79087 8.27785 2.64046 8.34015 2.52956 8.45105C2.41866 8.56194 2.35636 8.71235 2.35636 8.86918C2.35636 9.02601 2.41866 9.17642 2.52956 9.28732C2.64046 9.39822 2.79087 9.46052 2.9477 9.46052H5.90437V10.6432H2.9477C2.79087 10.6432 2.64046 10.7055 2.52956 10.8164C2.41866 10.9273 2.35636 11.0777 2.35636 11.2345C2.35636 11.3914 2.41866 11.5418 2.52956 11.6527C2.64046 11.7636 2.79087 11.8259 2.9477 11.8259H5.90437V13.5999C5.90437 13.7567 5.96667 13.9071 6.07757 14.018C6.18846 14.1289 6.33887 14.1912 6.4957 14.1912C6.65253 14.1912 6.80294 14.1289 6.91384 14.018C7.02474 13.9071 7.08704 13.7567 7.08704 13.5999V11.8259H10.0437C10.2005 11.8259 10.3509 11.7636 10.4618 11.6527C10.5727 11.5418 10.635 11.3914 10.635 11.2345C10.635 11.0777 10.5727 10.9273 10.4618 10.8164C10.3509 10.7055 10.2005 10.6432 10.0437 10.6432H7.08704V9.46052H10.0437C10.2005 9.46052 10.3509 9.39822 10.4618 9.28732C10.5727 9.17642 10.635 9.02601 10.635 8.86918C10.635 8.71235 10.5727 8.56194 10.4618 8.45105C10.3509 8.34015 10.2005 8.27785 10.0437 8.27785H7.24197L12.8774 0.951216C12.973 0.826987 13.0154 0.669874 12.9952 0.514412C12.975 0.358949 12.8939 0.217863 12.7698 0.122166Z" fill="#808080"/>
</svg>
