<svg width="17" height="17" viewBox="0 0 17 17" fill="none" xmlns="http://www.w3.org/2000/svg">
<path d="M15.1111 0H1.88889C0.85 0 0 0.85 0 1.88889V15.1111C0 16.15 0.85 17 1.88889 17H15.1111C16.15 17 17 16.15 17 15.1111V1.88889C17 0.85 16.15 0 15.1111 0ZM9.47278 3.83444L10.4739 2.83333L11.8056 4.165L13.1372 2.83333L14.1383 3.83444L12.8067 5.16611L14.1383 6.49778L13.1372 7.49889L11.8056 6.17667L10.4739 7.50833L9.47278 6.50722L10.8044 5.17555L9.47278 3.83444ZM3.06944 4.45778H7.79167V5.87444H3.06944V4.45778ZM8.02778 12.2778H6.13889V14.1667H4.72222V12.2778H2.83333V10.8611H4.72222V8.97222H6.13889V10.8611H8.02778V12.2778ZM14.1667 13.4583H9.44444V12.0417H14.1667V13.4583ZM14.1667 11.0972H9.44444V9.68056H14.1667V11.0972Z" fill="#FFB901"/>
</svg>
