<svg width="30" height="30" viewBox="0 0 30 30" fill="none" xmlns="http://www.w3.org/2000/svg">
<path d="M12.7002 14.0247L14.8233 11.9011C12.3541 10.7668 9.33164 11.2131 7.30067 13.244C4.69405 15.8511 4.69405 20.0918 7.30067 22.6979C9.90683 25.3051 14.1479 25.3051 16.7546 22.6979C18.7856 20.667 19.2316 17.6445 18.0971 15.1751L15.974 17.2986C16.1845 18.5361 15.8174 19.8532 14.8636 20.807C13.2996 22.3705 10.7552 22.3705 9.19143 20.807C7.6272 19.243 7.6272 16.699 9.19143 15.135C10.1449 14.1812 11.4623 13.8142 12.7002 14.0247Z" fill="#808080"/>
<path d="M20.9048 15.0222C21.9801 18.275 21.2288 22.0054 18.6454 24.589C14.9964 28.2378 9.05886 28.2378 5.40977 24.589C1.76091 20.9401 1.76091 15.0024 5.40977 11.354C7.99384 8.76951 11.7237 8.0183 14.977 9.09416L14.668 6.23788C10.7789 5.36932 6.53942 6.44236 3.51902 9.46259C-1.17301 14.1545 -1.17301 21.7884 3.51902 26.4799C8.21051 31.1714 15.8441 31.1714 20.5359 26.4799C23.5563 23.4593 24.6291 19.2204 23.7603 15.3317L20.9048 15.0222Z" fill="#808080"/>
<path d="M16.9135 12.0803L12.3231 16.671C11.8904 16.5724 11.419 16.6894 11.082 17.026C10.5599 17.5479 10.5599 18.3943 11.082 18.9166C11.6042 19.4388 12.4504 19.4388 12.9729 18.9166C13.31 18.5795 13.4261 18.1079 13.328 17.6755L17.9186 13.0853L23.586 13.6987L23.8119 13.4725L29.999 7.28523L23.4248 6.57416L22.7131 0L16.3001 6.41298L16.3346 6.73125L16.9135 12.0803ZM23.0933 12.3005L19.1319 11.8717L20.5108 10.4924L20.5018 10.4841L24.4797 10.9142L23.0933 12.3005ZM23.0645 7.87929L27.0797 8.31404L25.6932 9.70114L21.678 9.26639L23.0645 7.87929ZM21.6845 2.91933L22.1188 6.93432L20.7325 8.32049L20.2985 4.30602L21.6845 2.91933ZM19.0845 5.51904L19.5151 9.49671L19.5061 9.48752L18.127 10.8668L17.6981 6.90479L19.0845 5.51904Z" fill="#808080"/>
</svg>
